<svg width="345" height="345" viewBox="0 0 345 345" fill="none" xmlns="http://www.w3.org/2000/svg">
    <path d="M172.2 339.4C79.7 339.4 5 264.7 5 172.2C5 79.7 79.7 5 172.2 5C264.7 5 339.4 79.7 339.4 172.2C339.4 264.7 264.7 339.4 172.2 339.4Z" fill="black"/>
    <path d="M261.6 147.4H228.8V196.9H261.6C275.2 196.9 286.5 185.6 286.5 172C286.5 158.3 275.2 147.4 261.6 147.4Z" fill="#FFF100"/>
    <path d="M68.1 172.2C68.1 210.4 99.2 241.5 137.4 241.5C175.6 241.5 206.7 210.4 206.7 172.2C206.7 134 175.6 102.9 137.4 102.9C99.2 102.9 68.1 134 68.1 172.2Z" fill="#FFF100"/>
</svg>
